<?xml version="1.0" standalone="no"?>
<!DOCTYPE svg PUBLIC "-//W3C//DTD SVG 20010904//EN"
 "http://www.w3.org/TR/2001/REC-SVG-20010904/DTD/svg10.dtd">
<svg version="1.0" xmlns="http://www.w3.org/2000/svg"
 width="143.000000pt" height="168.000000pt" viewBox="0 0 143.000000 168.000000"
 preserveAspectRatio="xMidYMid meet">

<g transform="translate(0.000000,168.000000) scale(0.100000,-0.100000)"
fill="#000000" stroke="none">
<path d="M120 1361 l0 -239 148 -138 147 -138 3 221 c2 171 5 223 16 232 9 8
97 11 292 9 l279 -3 3 -297 2 -298 -445 7 -445 6 0 -146 0 -147 307 0 306 0
139 137 138 137 0 -137 0 -137 145 0 145 0 0 309 0 309 -282 276 -283 276
-307 0 -308 0 0 -239z"/>
</g>
</svg>
